# xmcd
#
# Track frame offsets: 
#        150
#        15252
#        30015
#        52605
#        63477
#        99252
#        112332
#        130132
#        143772
#
# Disc length: 2708 seconds
#
# Revision: 6
# Processed by: cddbd v1.5.2PL0 Copyright (c) Steve Scherf et al.
# Submitted via: ExactAudioCopy v0.95b2
#
DISCID=640a9209,760a8709
DTITLE=The Paul Butterfield Blues Band - East-West
DYEAR=1966
DGENRE=Blues
TTITLE0=Walkin' Blues
TTITLE1=Get Out Of My Life, Woman
TTITLE2=I Got A Mind To Give Up Living
TTITLE3=All These Blues
TTITLE4=Work Song
TTITLE5=Mary, Mary
TTITLE6=Two Trains Running
TTITLE7=Never Say No
TTITLE8=East-West
EXTD=As heard on BluesfestRadio.com
EXTT0=
EXTT1=
EXTT2=
EXTT3=
EXTT4=
EXTT5=
EXTT6=
EXTT7=
EXTT8=
PLAYORDER=
